<svg xmlns="http://www.w3.org/2000/svg" width="56mm" height="42mm" viewBox="0 0 56 42" preserveAspectRatio="none"><path d="M7.08 7.39c6.644-5.697 14.28-6.036 21.759-5.252.301.077.604.148.908.213.359.077.712.156 1.058.163.044.101.12.173.235.17 2.857-.09 5.506-.54 8.362.195 2.772.714 5.394 2.31 7.75 4.483 2.577 2.376 4.566 5.774 4.83 10.256.267 4.54-1.659 7.922-4.104 10.356-.145-.15-.292-.297-.443-.436-.13-.118-.343.082-.278.303.656 2.211 2.148 3.585 3.58 4.722.418.332.92.684 1.461.99-.427-.01-.854-.037-1.275-.081-.957-.1-1.888-.414-2.804-.799-.667-.28-1.277-.777-1.92-1.118-.227-.387-.682-.617-.977-.461-.273.142-.516.375-.756.612-2.532 2.041-5.008 4.007-7.764 5.457-3.1 1.631-6.361 2.637-9.646 3.127-3.118.465-6.283.339-9.385-.275-1.534-.304-3.064-.737-4.526-1.468-.961-.48-1.789-1.3-2.494-2.328-.502-.733-.697-1.66-1.02-2.524.06-.237.021-.506-.186-.64C5.79 30.703 2.46 28.24 1.248 22.329-.072 15.899 3.542 10.425 7.08 7.39" fill="#fafafa"/><path d="M7.08 7.39c6.644-5.697 14.28-6.036 21.759-5.252.301.077.604.148.908.213.359.077.712.156 1.058.163.044.101.12.173.235.17 2.857-.09 5.506-.54 8.362.195 2.772.714 5.394 2.31 7.75 4.483 2.577 2.376 4.566 5.774 4.83 10.256.267 4.54-1.659 7.922-4.104 10.356-.145-.15-.292-.297-.443-.436-.13-.118-.343.082-.278.303.656 2.211 2.148 3.585 3.58 4.722.418.332.92.684 1.461.99-.427-.01-.854-.037-1.275-.081-.957-.1-1.888-.414-2.804-.799-.667-.28-1.277-.777-1.92-1.118-.227-.387-.682-.617-.977-.461-.273.142-.516.375-.756.612-2.532 2.041-5.008 4.007-7.764 5.457-3.1 1.631-6.361 2.637-9.646 3.127-3.118.465-6.283.339-9.385-.275-1.534-.304-3.064-.737-4.526-1.468-.961-.48-1.789-1.3-2.494-2.328-.502-.733-.697-1.66-1.02-2.524.06-.237.021-.506-.186-.64C5.79 30.703 2.46 28.24 1.248 22.329-.072 15.899 3.542 10.425 7.08 7.39zM.249 22.721c.925 5.536 4.797 10.016 8.602 11.318.014 3.675 3.475 5.797 5.537 6.564 3.599 1.337 7.471 1.58 11.167 1.286 6.824-.541 14.372-3.61 19.884-9.573 1.208 1.542 3.39 2.043 4.87 2.342 1.101.223 3.123.521 4.366-.284.453.015.886-.07 1.273-.293.055-.032.077-.141.017-.19-1.277-1.047-2.983-1.215-4.357-2.115-1.148-.752-2.049-1.918-3-3.008 2.36-1.649 3.858-5.118 4.292-8.752.547-4.573-1.009-8.765-3.31-11.78-2.343-3.072-5.41-5.055-8.45-6.252-2.794-1.1-6.292-1.673-9.207-.56-.162-.166-.393-.23-.607-.27a.334.334 0 00-.089-.042c-8.784-2.527-19.54-.97-26.828 6.973-3.203 3.491-5.12 8.894-4.16 14.636" fill="#333"/></svg>