<svg xmlns="http://www.w3.org/2000/svg" width="125mm" height="42mm" viewBox="0 0 125 42" preserveAspectRatio="none"><path d="M15.806 7.39C30.634 1.693 47.68 1.354 64.372 2.138c.673.077 1.348.148 2.027.213.801.077 1.59.156 2.362.163.099.101.269.173.526.17 6.376-.09 12.288-.54 18.664.195a64.935 64.935 0 0117.3 4.483c5.751 2.376 10.192 5.774 10.78 10.256.596 4.54-3.703 7.922-9.16 10.356a26.1 26.1 0 00-.99-.436c-.288-.118-.766.082-.619.303 1.463 2.211 4.793 3.585 7.99 4.722.933.332 2.055.684 3.262.99a77.658 77.658 0 01-2.847-.081c-2.136-.1-4.213-.414-6.26-.799-1.487-.28-2.85-.777-4.283-1.118-.508-.387-1.523-.617-2.183-.461-.608.142-1.152.375-1.687.612-5.65 2.041-11.177 4.007-17.329 5.457-6.923 1.631-14.2 2.637-21.531 3.127-6.96.465-14.025.339-20.95-.275-3.424-.304-6.839-.737-10.103-1.468a16.815 16.815 0 01-5.566-2.328c-1.12-.733-1.557-1.66-2.279-2.524.136-.237.05-.506-.414-.64-8.158-2.352-15.588-4.815-18.297-10.726-2.946-6.43 5.12-11.904 13.02-14.939" fill="#fafafa"/><path d="M15.806 7.39C30.634 1.693 47.68 1.354 64.372 2.138c.673.077 1.348.148 2.027.213.801.077 1.59.156 2.362.163.099.101.269.173.526.17 6.376-.09 12.288-.54 18.664.195a64.935 64.935 0 0117.3 4.483c5.751 2.376 10.192 5.774 10.78 10.256.596 4.54-3.703 7.922-9.16 10.356a26.1 26.1 0 00-.99-.436c-.288-.118-.766.082-.619.303 1.463 2.211 4.793 3.585 7.99 4.722.933.332 2.055.684 3.262.99a77.658 77.658 0 01-2.847-.081c-2.136-.1-4.213-.414-6.26-.799-1.487-.28-2.85-.777-4.283-1.118-.508-.387-1.523-.617-2.183-.461-.608.142-1.152.375-1.687.612-5.65 2.041-11.177 4.007-17.329 5.457-6.923 1.631-14.2 2.637-21.531 3.127-6.96.465-14.025.339-20.95-.275-3.424-.304-6.839-.737-10.103-1.468a16.815 16.815 0 01-5.566-2.328c-1.12-.733-1.557-1.66-2.279-2.524.136-.237.05-.506-.414-.64-8.158-2.352-15.588-4.815-18.297-10.726-2.946-6.43 5.12-11.904 13.02-14.939zM.554 22.721c2.065 5.536 10.707 10.016 19.2 11.318.031 3.675 7.758 5.797 12.36 6.564 8.033 1.337 16.677 1.58 24.926 1.286 15.232-.541 32.08-3.61 44.383-9.573 2.698 1.542 7.57 2.043 10.871 2.342 2.459.223 6.971.521 9.747-.284 1.011.015 1.977-.07 2.84-.293.124-.032.173-.141.04-.19-2.85-1.047-6.66-1.215-9.728-2.115-2.56-.752-4.572-1.918-6.695-3.008 5.268-1.649 8.61-5.118 9.58-8.752 1.222-4.573-2.252-8.765-7.387-11.78-5.231-3.072-12.075-5.055-18.862-6.252-6.237-1.1-14.045-1.673-20.551-.56-.362-.166-.878-.23-1.355-.27a1.32 1.32 0 00-.2-.042C50.116-1.415 26.11.142 9.84 8.085 2.69 11.576-1.588 16.979.554 22.72" fill="#333"/></svg>